# xmcd
#
# Track frame offsets:
#	150
#	14167
#	31087
#	47865
#	64547
#	78365
#	93652
#	113972
#	129350
#	142702
#	158112
#	178797
#	197725
#	214067
#	228725
#	247472
#	266987
#	281237
#	300985
#
# Disc length: 4279 seconds
#
# Revision: 5
# Processed by: cddbd v1.5.2PL0 Copyright (c) Steve Scherf et al.
# Submitted via: EZCDAudioConverter 8.3.2.1
#
DISCID=1910b513
DTITLE=布施 明 - ベストアルバム DE-Magnetic (EZ-WAV)
DYEAR=2000
DGENRE=歌謡曲
TTITLE0=霧の摩周湖
TTITLE1=恋
TTITLE2=愛の園
TTITLE3=愛は不死鳥
TTITLE4=そっとおやすみ
TTITLE5=冬の停車場
TTITLE6=愛の終りに
TTITLE7=何故
TTITLE8=甘い十字架
TTITLE9=積木の部屋
TTITLE10=シクラメンのかほり
TTITLE11=傾いた道しるべ
TTITLE12=落葉が雪に
TTITLE13=ひとり芝居
TTITLE14=旅愁～斑鳩にて～
TTITLE15=負けちゃいけないよ
TTITLE16=めぐり逢い紡いで
TTITLE17=恋のサバイバル (I Will Survive)
TTITLE18=ファンタジー
EXTD=
EXTT0=
EXTT1=
EXTT2=
EXTT3=
EXTT4=
EXTT5=
EXTT6=
EXTT7=
EXTT8=
EXTT9=
EXTT10=
EXTT11=
EXTT12=
EXTT13=
EXTT14=
EXTT15=
EXTT16=
EXTT17=
EXTT18=
PLAYORDER=
